<?xml version="1.0" encoding="utf-8"?>
<!-- Generator: Adobe Illustrator 16.0.0, SVG Export Plug-In . SVG Version: 6.00 Build 0)  -->
<!DOCTYPE svg PUBLIC "-//W3C//DTD SVG 1.1//EN" "http://www.w3.org/Graphics/SVG/1.1/DTD/svg11.dtd">
<svg version="1.1" id="レイヤー_1" xmlns="http://www.w3.org/2000/svg" xmlns:xlink="http://www.w3.org/1999/xlink" x="0px"
	 y="0px" width="300px" height="300px" viewBox="0 0 300 300" enable-background="new 0 0 300 300" xml:space="preserve">
<path d="M191.326,154.516c-6.242,0-12.102-2.428-16.504-6.83c-9.094-9.099-9.094-23.916,0-33.012l16.504-16.506l11.075,11.083
	l-16.5,16.504c-1.446,1.437-2.243,3.361-2.243,5.421c0,2.06,0.797,3.99,2.239,5.43c1.377,1.384,3.359,2.17,5.429,2.17
	c2.07,0,4.051-0.786,5.426-2.17c4.414-4.412,10.277-6.838,16.508-6.838c6.232,0,12.092,2.426,16.502,6.838
	c4.407,4.409,6.834,10.273,6.834,16.502c0,6.234-2.427,12.104-6.834,16.511l-16.758,16.759l-0.381-0.391l-10.709-10.676
	l16.77-16.773c1.453-1.453,2.25-3.379,2.25-5.43c0-2.044-0.797-3.967-2.25-5.422c-1.373-1.377-3.351-2.168-5.416-2.168h-0.008
	c-2.072,0-4.052,0.783-5.43,2.168C203.428,152.088,197.567,154.516,191.326,154.516 M117.629,106.299l23.389-23.393l-11.075-11.081
	l-23.403,23.406L96.481,85.2c-3.402-3.401-5.278-7.917-5.278-12.731c0-4.815,1.876-9.337,5.278-12.737
	c3.4-3.408,7.923-5.28,12.738-5.28c4.814,0,9.337,1.872,12.737,5.28l1.149,1.153l11.074-11.083l-1.149-1.153
	c-6.361-6.365-14.819-9.871-23.812-9.871c-8.997,0-17.454,3.505-23.816,9.871c-6.36,6.356-9.865,14.817-9.865,23.819
	c0,8.993,3.505,17.456,9.874,23.82l163.014,162.64l1.15,1.155l11.068-11.083L117.629,106.299z M175.729,201.488l-28.188,28.193
	c-10.24,10.235-23.85,15.877-38.32,15.877c-14.476,0-28.084-5.642-38.324-15.877c-10.24-10.236-15.879-23.844-15.879-38.326
	c0-14.481,5.639-28.086,15.879-38.322L98.99,124.93l-10.701-10.678l-0.384-0.391l-28.088,28.098
	c-13.195,13.191-20.461,30.736-20.461,49.396c0,18.662,7.266,36.206,20.461,49.4c13.189,13.196,30.733,20.465,49.402,20.465
	c18.663,0,36.207-7.269,49.398-20.465l28.196-28.2l-10.701-10.677L175.729,201.488z M203.416,47.801L203.416,47.801
	c-0.837,0.799-1.66,1.332-2.951,1.332c-1.946,0-3.472-1.638-3.472-3.728v-0.03c0-2.106,1.493-3.698,3.472-3.698
	c1.079,0,1.937,0.376,2.867,1.262l0.293,0.277l1.317-1.415l-0.288-0.272c-0.936-0.881-2.088-1.696-4.176-1.696
	c-3.059,0-5.456,2.449-5.456,5.573v0.028c0,3.161,2.327,5.542,5.413,5.542c2.145,0,3.37-0.947,4.285-1.876l0.282-0.287l-1.305-1.28
	L203.416,47.801z M210.334,39.932h1.572l4.92,10.873h-2.096l-1.171-2.643h-4.923l-1.187,2.643h-2.036L210.334,39.932z
	 M211.105,42.63l-1.666,3.717h3.321L211.105,42.63z M222.904,40.004c1.297,0,2.404,0.397,3.126,1.118
	c0.573,0.573,0.889,1.373,0.889,2.253v0.029c0,1.53-0.884,2.676-2.431,3.159l3.189,4.243h-2.387l-2.902-3.887h-2.256v3.887h-1.929
	V40.004H222.904z M224.975,43.418c0-0.997-0.785-1.57-2.155-1.57h-2.687v3.255h2.672c1.319,0,2.17-0.649,2.17-1.657V43.418
	 M229.346,50.805h1.93V40.004h-1.93V50.805z M235.769,40.004h-1.652v10.801h1.901V43.36l5.861,7.444h1.494V40.004h-1.898v7.258
	l-5.674-7.215L235.769,40.004z M244.752,50.805l4.919-10.873h1.573l0.03,0.066l4.891,10.807h-2.097l-1.171-2.643h-4.923
	l-1.186,2.643H244.752z M248.777,46.347h3.321l-1.655-3.717L248.777,46.347z M195.937,69.001h1.929v-4.357h5.415v-1.828h-5.415
	v-2.771h6.056v-1.844h-7.984V69.001z M216.293,63.599c0,3.126-2.423,5.573-5.516,5.573c-3.127,0-5.485-2.382-5.485-5.542v-0.031
	c0-3.122,2.423-5.569,5.515-5.569c3.127,0,5.486,2.382,5.486,5.542V63.599z M214.32,63.599c0-2.124-1.522-3.726-3.543-3.726
	c-2.004,0-3.514,1.591-3.514,3.699v0.027c0,2.127,1.523,3.73,3.543,3.73c2.003,0,3.514-1.59,3.514-3.699V63.599z M223.348,69.171
	c-3.126,0-5.485-2.382-5.485-5.542v-0.029c0-3.123,2.421-5.571,5.514-5.571c3.128,0,5.485,2.382,5.485,5.542v0.029
	C228.861,66.726,226.441,69.171,223.348,69.171 M219.834,63.601c0,2.125,1.523,3.728,3.542,3.728c2.005,0,3.514-1.592,3.514-3.699
	v-0.029c0-2.126-1.522-3.728-3.542-3.728c-2.004,0-3.514,1.591-3.514,3.699V63.601z M234.746,58.202
	c3.311,0,5.715,2.258,5.715,5.369v0.027c0,3.13-2.404,5.402-5.715,5.402h-3.871V58.202H234.746 M238.488,63.599
	c0-2.091-1.539-3.555-3.742-3.555h-1.941v7.112h1.941c2.203,0,3.742-1.449,3.742-3.527V63.599z M199.534,80.863L199.534,80.863
	c-2.397-0.514-2.397-1.064-2.397-1.551v-0.028c0-0.715,0.711-1.215,1.729-1.215c0.963,0,1.799,0.318,2.632,0.995l0.322,0.264
	l1.142-1.514l-0.303-0.245c-1.15-0.923-2.275-1.314-3.765-1.314c-2.136,0-3.687,1.314-3.687,3.13v0.026
	c0,2.058,1.471,2.799,3.676,3.278c2.281,0.481,2.281,1.026,2.281,1.507v0.029c0,0.778-0.734,1.3-1.828,1.3
	c-1.215,0-2.131-0.38-3.16-1.311l-0.307-0.279l-1.219,1.445l0.289,0.256c1.301,1.162,2.686,1.702,4.354,1.702
	c2.246,0,3.814-1.326,3.814-3.229v-0.027C203.107,82.947,202.702,81.553,199.534,80.863 M207.25,82.669h5.457V80.84h-5.457v-2.613
	h6.1v-1.83h-8.029v10.799h8.102v-1.828h-6.172V82.669z M224.32,79.798c0,1.529-0.884,2.671-2.43,3.157l3.188,4.241h-2.388
	l-2.899-3.884h-2.257v3.884h-1.93V76.397h4.701c1.296,0,2.405,0.397,3.126,1.118c0.572,0.573,0.889,1.373,0.889,2.252V79.798
	 M220.205,81.497c1.318,0,2.172-0.65,2.172-1.658v-0.026c0-0.998-0.785-1.573-2.157-1.573h-2.686v3.257H220.205z M230.434,84.364
	l-3.291-7.966h-2.131l4.643,10.871h1.528l4.642-10.871h-2.088L230.434,84.364z M237.031,87.196h1.93V76.397h-1.93V87.196z
	 M249.182,84.193c-0.836,0.799-1.658,1.332-2.951,1.332c-1.947,0-3.472-1.639-3.472-3.728v-0.029c0-2.108,1.493-3.699,3.472-3.699
	c1.078,0,1.936,0.377,2.868,1.262l0.292,0.278l1.318-1.415l-0.289-0.274c-0.935-0.88-2.086-1.696-4.175-1.696
	c-3.061,0-5.456,2.448-5.456,5.573v0.028c0,3.16,2.326,5.542,5.412,5.542c2.145,0,3.369-0.946,4.285-1.874l0.283-0.287l-1.307-1.28
	L249.182,84.193z M254.473,82.669h5.457V80.84h-5.457v-2.613h6.1v-1.83h-8.029v10.799h8.102v-1.828h-6.172V82.669z"/>
</svg>
